<svg xmlns="http://www.w3.org/2000/svg" version="1.1" xmlns:xlink="http://www.w3.org/1999/xlink" xmlns:svgjs="http://svgjs.dev/svgjs" width="1000" height="398" viewBox="0 0 1000 398"><g transform="matrix(1,0,0,1,-0.6056348047761162,-0.4839317108824446)"><svg viewBox="0 0 396 158" data-background-color="#ffffff" preserveAspectRatio="xMidYMid meet" height="398" width="1000" xmlns="http://www.w3.org/2000/svg" xmlns:xlink="http://www.w3.org/1999/xlink"><g id="tight-bounds" transform="matrix(1,0,0,1,0.24008861730862918,0.19211359376740234)"><svg viewBox="0 0 395.52 157.6157728124652" height="157.6157728124652" width="395.52"><g><svg viewBox="0 0 395.52 157.6157728124652" height="157.6157728124652" width="395.52"><g><svg viewBox="0 0 395.52 157.6157728124652" height="157.6157728124652" width="395.52"><g id="textblocktransform"><svg viewBox="0 0 395.52 157.6157728124652" height="157.6157728124652" width="395.52" id="textblock"><g><svg viewBox="0 0 395.52 157.6157728124652" height="157.6157728124652" width="395.52"><path d="M394.594 33.806C392.735 17.445 387.435 12.897 387.435 12.897 371.165-3.954 350.86-0.322 332.619 2.099 300.414 2.197 268.339 5.796 236.208 7.727 168.767 8.021 100.749 3.179 33.643 15.122 27.339 18.787-6.54 15.842 1.121 35.9 3.129 44.244 10.456 53.504 10.232 61.16 11.236 62.502 12.631 59.426 13.226 61.357 15.309 66.559 18.711 64.105 21.501 67.181 17.614 75.394 20.403 82.233 23.062 89.398 18.377 91.264 12.371 90.38 9.675 96.564 9.396 101.047 7.89 100.196 6.235 100 5.026 99.869 2.59 100.36 2.999 101.767 4.394 106.577-1.594 109.358 2.162 114.07-0.422 119.174 3.948 123.592 3.353 129.122 3.278 130.234 3.687 131.183 4.338 131.445 7.22 132.852 3.018 135.6 3.464 138.578 33.029 158.93 65.104 144.86 95.394 154.219 103.259 147.674 97.346 156.542 100.489 155.167 102.943 153.564 104.728 160.206 107.499 156.444 107.927 155.364 107.276 152.812 108.8 153.302 109.6 153.564 110.307 153.499 110.418 151.994 110.586 149.736 109.117 151.143 108.726 149.965 112.947 144.01 111.906 158.178 115.866 157.589 115.68 155.855 114.528 153.368 116.889 153.695 119.232 151.208 119.306 149.147 121.389 154.742 121.463 155.953 121.835 156.804 122.43 157.392 128.938 151.306 135.409 159.552 142.233 156.804 146.417 153.793 150.433 158.44 154.672 157.294 156.16 156.378 157.666 154.742 159.098 157.491 176.632 158.08 195.319 155.626 211.943 157.589 256.364 153.924 303.835 159.094 350.674 154.251 361.719 152.386 373.192 149.736 383.958 147.609 383.958 147.609 392.679 141.785 392.679 115.608S394.538 92.703 394.817 71.86C395.096 51.017 396.398 50.166 394.538 33.806Z" opacity="1" fill="#ee3e38" data-fill-palette-color="tertiary"></path><g transform="matrix(1,0,0,1,55.76832,26.230666666666668)"><svg width="283.98335999999995" viewBox="-0.8799999952316284 -30.920000076293945 119.79000091552734 44.36000061035156" height="105.15443947913187" data-palette-color="#ffffff"><path d="M8.84 12.12L8.84 12.12Q11.6 12.12 13.78 10.68 15.96 9.24 17.24 7.56 18.52 5.88 19.68 2.36 20.84-1.16 21.26-3.04 21.68-4.92 22.1-7.12 22.52-9.32 22.56-9.48 22.6-9.64 22.64-9.86 22.68-10.08 22.76-10.52 22.84-10.96 23.08-12.16L23.08-12.16 22.8-12.16Q17.2-1.28 13.76-1.28L13.76-1.28Q9.76-1.28 9.76-6.08L9.76-6.08Q9.76-8.24 11.76-15.22 13.76-22.2 13.76-25.36L13.76-25.36Q13.76-27.4 12.82-28.66 11.88-29.92 9.84-29.92L9.84-29.92Q6.2-29.92 4.4-25.76L4.4-25.76Q3.2-22.96 3.2-20.16L3.2-20.16Q3.2-18.8 3.48-17.44L3.48-17.44Q4.36-13.28 7.2-13.28L7.2-13.28Q6.92-12.72 6.44-12.72L6.44-12.72Q2.84-12.72 1.76-17.28L1.76-17.28Q1.4-18.72 1.4-20.16L1.4-20.16Q1.4-23.24 2.96-26.36L2.96-26.36Q5.28-30.92 9.8-30.92L9.8-30.92Q13.28-30.92 14.86-28.98 16.44-27.04 16.44-23.94 16.44-20.84 14.58-14.06 12.72-7.28 12.72-4.98 12.72-2.68 14.28-2.68L14.28-2.68Q15.6-2.68 18-6.48L18-6.48Q21.92-12.52 24.8-19.64L24.8-19.64Q25.92-22.44 27.32-22.44L27.32-22.44Q28.2-22.44 28.2-21.52L28.2-21.52Q26.8-18.12 25.4-10.12L25.4-10.12Q23.76-0.76 22 3.28L22 3.28Q21.24 5.04 19.96 7.06 18.68 9.08 17.18 10.26 15.68 11.44 13.54 12.24 11.4 13.04 8.88 13.04L8.88 13.04Q2.76 13.04 0.28 8.88L0.28 8.88Q-0.88 6.88-0.88 4.6L-0.88 4.6Q-0.88 3.36-0.52 2.04L-0.52 2.04Q0.4-1.32 2.96-2.56L2.96-2.56Q4.04-3.08 4.88-3.08L4.88-3.08Q6.2-3.08 6.44-2.32L6.44-2.32 6.52-2.04Q3.76-2.04 2.2 0.84L2.2 0.84Q1.2 2.72 1.2 4.28L1.2 4.28Q1.2 10.24 6 11.72L6 11.72Q7.28 12.12 8.84 12.12ZM43.88 3L43.88 3Q44.36 3 44.78 2.58 45.2 2.16 45.56 1.28L45.56 1.28Q45.6 0.92 46.04 0.92 46.48 0.92 46.38 1.28 46.28 1.64 46.06 2.16 45.84 2.68 45.14 3.54 44.44 4.4 43.72 4.4L43.72 4.4Q42.12 4.4 41.24 2.4L41.24 2.4Q40.32 0.4 40.32-2.54 40.32-5.48 40.76-8.6L40.76-8.6 40.4-8.6Q35.56-0.16 32.96-0.16L32.96-0.16Q29.88-0.16 29.88-4.86 29.88-9.56 31.88-14.24L31.88-14.24Q34.08-19.4 35.76-19.4L35.76-19.4Q36.48-19.4 36.48-18.52L36.48-18.52Q34.8-14.08 33.6-9.88 32.4-5.68 32.4-3.62 32.4-1.56 33.36-1.56L33.36-1.56Q34.04-1.56 35.38-3.2 36.72-4.84 38.12-7.2L38.12-7.2Q41.12-12.28 42.7-15.84 44.28-19.4 45.96-19.4L45.96-19.4Q46.76-19.4 46.76-18.52L46.76-18.52Q44.2-13.44 43.12-6.4L43.12-6.4Q42.68-3.6 42.68-0.92L42.68-0.92Q42.68 3 43.88 3ZM58.67-4.88L58.67-4.88Q58.67-9.8 60.48-17.32L60.48-17.32Q60.59-17.72 60.23-17.68L60.23-17.68Q59.95-17.64 59.72-17.44L59.72-17.44Q57.95-15.96 55.84-11.96 53.72-7.96 52.44-4.66 51.16-1.36 51.16-0.8L51.16-0.8Q51.16-0.32 50.55-0.32L50.55-0.32Q49.35-0.32 49.35-3.48L49.35-3.48Q49.35-9.48 50.55-14.3 51.76-19.12 53.48-19.12L53.48-19.12Q54.23-19.12 54.23-18.28L54.23-18.28Q52.4-12.48 51.59-6.36L51.59-6.36 51.95-6.36Q57.23-19.56 61.67-19.56L61.67-19.56Q63.59-19.56 63.59-17.68L63.59-17.68Q61.72-12.08 60.88-6.64L60.88-6.64 61.2-6.64Q62.52-9.44 63.86-11.74 65.19-14.04 67-16.02 68.8-18 70.23-18L70.23-18Q72.16-18 72.16-16.16L72.16-16.16Q70.08-9.24 70.08-2.68L70.08-2.68Q70.08 1.56 71.36 1.56L71.36 1.56Q71.8 1.56 72.23 1.18 72.67 0.8 72.84 0.8L72.84 0.8Q73.39 0.8 72.8 1.68L72.8 1.68Q72.64 1.96 72.09 2.44 71.56 2.92 71.03 2.92L71.03 2.92Q69.47 2.92 68.62 0.74 67.75-1.44 67.75-4.92L67.75-4.92Q67.75-11.04 69.03-15.68L69.03-15.68Q69.12-15.96 68.84-15.96L68.84-15.96Q68.59-15.92 68.36-15.72L68.36-15.72Q66.08-13.76 63.27-8.46 60.48-3.16 60.48-2.2L60.48-2.2Q60.48-1.72 59.84-1.72L59.84-1.72Q58.67-1.72 58.67-4.88ZM85.27-4.88L85.27-4.88Q85.27-9.8 87.07-17.32L87.07-17.32Q87.19-17.72 86.83-17.68L86.83-17.68Q86.55-17.64 86.31-17.44L86.31-17.44Q84.55-15.96 82.43-11.96 80.31-7.96 79.03-4.66 77.75-1.36 77.75-0.8L77.75-0.8Q77.75-0.32 77.15-0.32L77.15-0.32Q75.95-0.32 75.95-3.48L75.95-3.48Q75.95-9.48 77.15-14.3 78.35-19.12 80.07-19.12L80.07-19.12Q80.83-19.12 80.83-18.28L80.83-18.28Q78.99-12.48 78.19-6.36L78.19-6.36 78.55-6.36Q83.83-19.56 88.27-19.56L88.27-19.56Q90.19-19.56 90.19-17.68L90.19-17.68Q88.31-12.08 87.47-6.64L87.47-6.64 87.79-6.64Q89.11-9.44 90.45-11.74 91.79-14.04 93.59-16.02 95.39-18 96.83-18L96.83-18Q98.75-18 98.75-16.16L98.75-16.16Q96.67-9.24 96.67-2.68L96.67-2.68Q96.67 1.56 97.95 1.56L97.95 1.56Q98.39 1.56 98.83 1.18 99.27 0.8 99.43 0.8L99.43 0.8Q99.99 0.8 99.39 1.68L99.39 1.68Q99.23 1.96 98.69 2.44 98.15 2.92 97.63 2.92L97.63 2.92Q96.07 2.92 95.21 0.74 94.35-1.44 94.35-4.92L94.35-4.92Q94.35-11.04 95.63-15.68L95.63-15.68Q95.71-15.96 95.43-15.96L95.43-15.96Q95.19-15.92 94.95-15.72L94.95-15.72Q92.67-13.76 89.87-8.46 87.07-3.16 87.07-2.2L87.07-2.2Q87.07-1.72 86.43-1.72L86.43-1.72Q85.27-1.72 85.27-4.88ZM103.15 12.52L103.15 12.52Q106.75 12.52 108.79 9.12L108.79 9.12Q110.55 6.12 111.51 1.64L111.51 1.64Q104.27 1.8 100.39 7.16L100.39 7.16Q100.15 7.52 99.63 7.28L99.63 7.28Q99.35 7.12 99.47 6.88L99.47 6.88Q101.19 4.28 104.27 2.46 107.35 0.64 111.75 0.48L111.75 0.48Q112.19-1.52 112.59-4.2 112.99-6.88 113.51-9.4L113.51-9.4 113.15-9.4Q107.95-0.16 105.23-0.16L105.23-0.16Q102.19-0.16 102.19-4.84 102.19-9.52 104.19-14.26 106.19-19 107.83-19.36L107.83-19.36 108.07-19.4Q108.75-19.4 108.75-18.52L108.75-18.52Q108.31-17.44 107.63-15.7 106.95-13.96 105.83-9.98 104.71-6 104.71-3.78 104.71-1.56 105.67-1.56L105.67-1.56Q106.79-1.56 109.27-5.44L109.27-5.44Q112.91-11.12 115.59-16.96L115.59-16.96Q116.75-19.4 118.07-19.4L118.07-19.4Q118.91-19.4 118.91-18.48L118.91-18.48Q118.15-17.08 117.07-13.24 115.99-9.4 115.31-5.5 114.63-1.6 114.15 0.6L114.15 0.6Q117.19 1.12 117.67 3.24L117.67 3.24Q117.75 3.6 117.75 4.22 117.75 4.84 117.27 5.3 116.79 5.76 116.43 5.76L116.43 5.76Q116.51 5.48 116.47 4.78 116.43 4.08 116.21 3.6 115.99 3.12 115.39 2.6 114.79 2.08 113.83 1.84L113.83 1.84Q110.75 13.44 103.15 13.44L103.15 13.44Q99.87 13.44 98.79 11.12L98.79 11.12Q98.75 11 98.75 10.92L98.75 10.92Q98.75 10.68 99.17 10.62 99.59 10.56 99.79 10.88L99.79 10.88Q100.51 12.52 103.15 12.52Z" opacity="1" transform="matrix(1,0,0,1,0,0)" fill="#ffffff" class="wordmark-text-0" data-fill-palette-color="quaternary" id="text-0"></path></svg></g></svg></g></svg></g></svg></g><g></g></svg></g><defs></defs></svg><rect width="395.52" height="157.6157728124652" fill="none" stroke="none" visibility="hidden"></rect></g></svg></g></svg>